<?xml version='1.0' encoding='UTF-8' standalone='no'?>
<svg baseProfile="tiny" width="296.926mm" height="209.973mm" viewBox="0 0 3507 2480" version="1.2" xmlns="http://www.w3.org/2000/svg" xmlns:xlink="http://www.w3.org/1999/xlink" xmlns:cc="http://creativecommons.org/ns#">
 <defs/>
 <g stroke-linejoin="bevel" stroke="black" stroke-linecap="square" fill="none" fill-rule="evenodd" stroke-width="1">
  <g transform="matrix(1,0,0,1,0,0)" font-size="34.375" stroke-linejoin="bevel" font-weight="400" stroke="#000000" font-style="normal" stroke-linecap="square" fill="none" font-family="MS Shell Dlg 2" stroke-width="1" stroke-opacity="1"/>
  <g transform="matrix(1,0,0,1,0,0)" font-size="34.375" stroke-linejoin="bevel" font-weight="400" stroke="#000000" font-style="normal" stroke-linecap="square" fill="none" font-family="MS Shell Dlg 2" stroke-width="1" stroke-opacity="1"/>
  <g transform="matrix(11.8081,0,0,11.8081,0,0)" font-size="34.375" stroke-linejoin="bevel" font-weight="400" stroke="#000000" font-style="normal" stroke-linecap="square" fill="none" font-family="MS Shell Dlg 2" stroke-width="1" stroke-opacity="1"/>
  <g transform="matrix(0.999751,0,0,0.999751,0,0)" font-size="34.375" stroke-linejoin="bevel" font-weight="400" stroke="#000000" font-style="normal" stroke-linecap="square" fill="none" font-family="MS Shell Dlg 2" stroke-width="1" stroke-opacity="1"/>
  <g transform="matrix(0.999751,0,0,0.999751,0,0)" font-size="34.375" font-weight="400" stroke="none" font-style="normal" fill="#ffffff" font-family="MS Shell Dlg 2" fill-opacity="1">
   <path vector-effect="none" fill-rule="evenodd" d="M-2,-2 L3510,-2 L3510,2483 L-2,2483 L-2,-2"/>
  </g>
  <g transform="matrix(0.999751,0,0,0.999751,0,0)" font-size="34.375" stroke-linejoin="bevel" font-weight="400" stroke="#000000" font-style="normal" stroke-linecap="square" fill="none" font-family="MS Shell Dlg 2" stroke-width="1" stroke-opacity="1"/>
  <g transform="matrix(11.8081,0,0,11.8081,0,0)" font-size="34.375" stroke-linejoin="bevel" font-weight="400" stroke="#000000" font-style="normal" stroke-linecap="square" fill="none" font-family="MS Shell Dlg 2" stroke-width="1" stroke-opacity="1"/>
  <g transform="matrix(11.8081,0,0,11.8081,0,0)" font-size="34.375" stroke-linejoin="bevel" font-weight="400" stroke="#000000" font-style="normal" stroke-linecap="square" fill="none" font-family="MS Shell Dlg 2" stroke-width="1" stroke-opacity="1"/>
  <g transform="matrix(11.8081,0,0,11.8081,0,0)" font-size="34.375" stroke-linejoin="bevel" font-weight="400" stroke="#000000" font-style="normal" stroke-linecap="square" fill="none" font-family="MS Shell Dlg 2" stroke-width="1" stroke-opacity="1"/>
  <g transform="matrix(11.8081,0,0,11.8081,0,0)" font-size="34.375" font-weight="400" stroke="none" font-style="normal" fill="#ffffff" font-family="MS Shell Dlg 2" fill-opacity="1">
   <rect width="297" height="210" x="0" y="0"/>
  </g>
  <g transform="matrix(11.8081,0,0,11.8081,0,0)" font-size="34.375" stroke-linejoin="bevel" font-weight="400" stroke="#000000" font-style="normal" stroke-linecap="square" fill="none" font-family="MS Shell Dlg 2" stroke-width="1" stroke-opacity="1"/>
  <g transform="matrix(11.8081,0,0,11.8081,0,0)" font-size="34.375" stroke-linejoin="bevel" font-weight="400" stroke="#000000" font-style="normal" stroke-linecap="square" fill="none" font-family="MS Shell Dlg 2" stroke-width="1" stroke-opacity="1"/>
  <g transform="matrix(0.999751,0,0,0.999751,0,0)" font-size="34.375" font-weight="400" stroke="none" font-style="normal" fill="#000000" font-family="MS Shell Dlg 2" fill-opacity="0">
   <rect width="3508" height="2480" x="0" y="0"/>
  </g>
  <g transform="matrix(0.999751,0,0,0.999751,0,0)" font-size="34.375" stroke-linejoin="bevel" font-weight="400" stroke="#232323" font-style="normal" stroke-linecap="square" fill="#f3a6b2" font-family="MS Shell Dlg 2" stroke-width="3.07087" fill-opacity="0" stroke-opacity="1">
   <path vector-effect="none" fill-rule="evenodd" d="M594.203,1113.52 L616.084,1115.54 L635.529,1134.46 L635.239,1156.84 L615.129,1164.21 L632.994,1190.9 L622.068,1213.61 L587.463,1195.93 L572.197,1236.69 L556.631,1223.38 L510.661,1213.82 L510.009,1201.9 L502.979,1192.01 L468.642,1162.42 L468.479,1136.04 L454.224,1137.34 L440.569,1113.63 L462.45,1115.7 L479.435,1104.12 L486.067,1108.7 L525.186,1105.78 L533.083,1115.74 L557.858,1124.64 L571.769,1136.48 L594.203,1113.52"/>
   <path vector-effect="none" fill-rule="evenodd" d="M2962.51,1152.44 L2976.94,1130.93 L2994.79,1141.17 L2990.38,1156.69 L2971.65,1176.64 L2953.33,1174.26 L2940.94,1190.63 L2954.69,1211.15 L2979.39,1209.95 L2997.26,1220.19 L3018.9,1210.92 L3040.09,1209.5 L3057.09,1219.67 L3065.62,1239.87 L3048,1255.96 L3052.79,1279.89 L3062,1288.3 L3062.57,1309.37 L3018.63,1292.4 L3016.55,1267.31 L3007.05,1264.13 L2991.38,1276.38 L2970.84,1342.23 L2975.78,1363.55 L3022.29,1397.77 L3021.7,1408.26 L3004.27,1404.63 L3002.54,1434.76 L2990.75,1470.89 L2969.57,1470.98 L2962.34,1488.97 L2929.56,1491 L2933.42,1470.2 L2919.73,1462.82 L2897.57,1494.39 L2885.92,1467.41 L2872.56,1469.25 L2875.34,1497.02 L2859.52,1510.54 L2827.67,1511.27 L2802.37,1491.35 L2808.91,1470.71 L2795.12,1421.23 L2775.94,1417.44 L2785.2,1395.65 L2783.52,1379.77 L2767.7,1364.35 L2747.74,1359.19 L2745.03,1331.41 L2728.11,1334.32 L2719.1,1323.25 L2703.21,1323.58 L2674.44,1290.24 L2670.89,1262.41 L2695.94,1256.07 L2703.1,1197.34 L2715.15,1173.11 L2737.85,1175.82 L2738.26,1154.8 L2698.69,1154.99 L2676.02,1137.8 L2678.53,1111.66 L2689.79,1086.06 L2669.23,1063.73 L2645.32,1053.03 L2649.17,1033.54 L2679.33,1014.39 L2692.75,1024.43 L2684.61,1042.34 L2691.26,1062.48 L2711.45,1062.42 L2722.76,1049.96 L2758.3,1042.95 L2746.11,1069.81 L2751.34,1099.06 L2790.8,1100.16 L2799.23,1105.93 L2807.93,1180.09 L2824.41,1169.25 L2839.14,1172.76 L2843.53,1187.49 L2873.95,1178.79 L2890.57,1165.31 L2899.17,1168.45 L2917.64,1123.52 L2920.47,1105.28 L2939.26,1114.27 L2931.24,1161.13 L2955.23,1171.74 L2962.51,1152.44"/>
   <path vector-effect="none" fill-rule="evenodd" d="M2649.44,1309.72 L2664.99,1314.64 L2661.69,1339.41 L2632.22,1345.46 L2629.86,1326.9 L2649.44,1309.72"/>
   <path vector-effect="none" fill-rule="evenodd" d="M2013.18,1330.11 L2037.95,1329.26 L2072.47,1302.77 L2086.15,1284 L2099.59,1281.01 L2121.56,1244.4 L2142.86,1216.95 L2145.3,1194.76 L2131.78,1174.07 L2165.25,1173.78 L2180.09,1162.98 L2203.28,1171.16 L2207.69,1158.31 L2227.92,1158.39 L2244.9,1167.45 L2248.9,1186.14 L2267.89,1204.54 L2268.31,1224.3 L2283.02,1241.09 L2288.38,1226.98 L2311.69,1233.82 L2328.01,1213.88 L2346.07,1220.35 L2373.51,1257.7 L2376.07,1285.49 L2368.88,1313.95 L2386.44,1315.12 L2386.69,1298.03 L2401.17,1292.42 L2434.68,1292 L2444.61,1301.86 L2442.7,1317.51 L2420.52,1333.15 L2376.7,1328.94 L2343.78,1359.62 L2346.77,1380.86 L2338.87,1406.64 L2376.48,1398.63 L2397.05,1407.88 L2392.51,1436.52 L2399.75,1460.67 L2382.27,1484.5 L2368.09,1471.72 L2317.51,1474.91 L2303.78,1495.03 L2299.99,1511.88 L2287.93,1520.27 L2282.11,1540.92 L2264.48,1566.03 L2253.12,1563.94 L2241.65,1576.31 L2213.29,1563.85 L2196.86,1596.92 L2179.68,1589.15 L2173.11,1568.97 L2149.93,1571.31 L2145.71,1530.24 L2122.91,1527.33 L2102.12,1558.76 L2092.2,1548.85 L2074.96,1567.37 L2065.82,1558.83 L2030.27,1548.41 L2023.93,1525.6 L2052.29,1499.99 L2042.94,1482.22 L2021.32,1475.42 L2005.8,1482.2 L2002.68,1451.72 L1976.87,1441.97 L1998.78,1419.86 L2024.56,1417.76 L2014.56,1372.32 L2013.18,1330.11"/>
   <path vector-effect="none" fill-rule="evenodd" d="M2380.84,1121.39 L2357.47,1115.88 L2329.47,1100.85 L2314.36,1064.31 L2301.67,1070.03 L2289.8,1050.8 L2275.38,1043.24 L2277.86,1019.73 L2259.13,985.559 L2238.34,981.499 L2214.61,969.335 L2213.56,933.738 L2190.82,920.317 L2177.36,924.642 L2157.65,943.001 L2139.36,978.561 L2122.08,974.712 L2099.98,952.095 L2072.13,948.8 L2041.04,966.315 L2026.75,957.394 L2000.39,969.968 L1979.6,953.985 L1991.88,929.871 L1981.39,917.265 L1985.32,887.281 L1962.25,879.021 L1954.48,865.293 L1986.24,850.497 L2009.14,812.673 L2014.7,784.121 L2050.6,784.075 L2062.44,753.337 L2082.37,756.079 L2099.72,733.625 L2090.15,696.093 L2080.62,670.406 L2105.4,653.747 L2162.76,595.946 L2174.83,598.11 L2209.03,583.392 L2227.49,568.883 L2234.38,532.511 L2261.55,530.443 L2279.47,548.784 L2307.4,561.225 L2324.17,609.74 L2317.62,629.033 L2329.16,639.029 L2321.57,660.882 L2331.96,687.905 L2325.04,725.593 L2340.26,733.203 L2323.51,761.016 L2332.38,772.143 L2346.67,767.846 L2337.83,808.036 L2352.72,820.881 L2368.58,819.317 L2368.92,840.39 L2381.03,855.673 L2344.56,876.905 L2368.89,906.168 L2386.34,907.336 L2400.39,920.112 L2408.41,904.86 L2427.78,890.358 L2441.75,904.436 L2442.55,932.114 L2433.39,938.087 L2381.09,959.607 L2365.28,986.175 L2371.3,1001.05 L2360.64,1016.12 L2361.51,1042.49 L2370.16,1044.38 L2371.82,1072.12 L2380.84,1121.39"/>
   <path vector-effect="none" fill-rule="evenodd" d="M3396.24,1105.35 L3377.38,1113.57 L3374.94,1126.59 L3324.59,1116.05 L3309.22,1124.44 L3278.31,1095.18 L3255.97,1118.95 L3224.15,1106.71 L3192.95,1115.52 L3130.66,1098.93 L3125.27,1085.48 L3144.74,1066.85 L3144.67,1052.38 L3120.19,1035.24 L3088.58,1020.32 L3068.7,1015.25 L3084.97,991.189 L3079.6,977.737 L3117.95,996.99 L3132.51,987.289 L3160.69,1032.24 L3191.87,1023.44 L3197.02,993.492 L3188.49,973.304 L3221.15,952.747 L3232.45,970.453 L3268.8,946.132 L3283.74,961.396 L3314.34,945.944 L3296.03,879.238 L3275.21,859.715 L3256.83,860.036 L3251.13,836.063 L3218.95,832.994 L3210.66,808.874 L3214.21,791.978 L3236.86,793.216 L3256.73,781.15 L3273.74,741.315 L3315.45,744.87 L3333.04,758.954 L3353.2,757.394 L3364.63,772.458 L3398.73,771.616 L3409.44,784.005 L3429.34,787.667 L3436.47,869.534 L3421.5,888.477 L3444.98,959.352 L3435.57,972.012 L3436.7,1000.99 L3448.4,1029.19 L3406.41,1078.28 L3396.24,1105.35"/>
   <path vector-effect="none" fill-rule="evenodd" d="M974.278,893.356 L1004.32,881.479 L1007.65,863.323 L1031.54,861.441 L1073.54,894.044 L1105.49,900.731 L1119.51,932.224 L1130.3,939.729 L1124.15,960.283 L1113.99,966.004 L1101.69,1007.11 L1129.97,1016.1 L1145.27,1012.13 L1156.07,1030.17 L1178.14,1039.93 L1181.62,1082.37 L1139.27,1103.82 L1114.66,1103.05 L1096.26,1112.02 L1075.41,1149.76 L1075.26,1172.14 L1041.72,1182.44 L1021.97,1196.54 L1015.9,1215.78 L1002.78,1204.1 L989.802,1221.42 L968.927,1238.05 L952.917,1239.29 L936.523,1224.69 L914.379,1225.39 L910.267,1211.85 L942.009,1192.24 L928.259,1177.86 L934.813,1153.4 L925.42,1119.64 L906.094,1108.72 L904.78,1083.58 L919.096,1061.12 L933.475,1047.89 L959.822,1048.88 L955.683,1015.58 L967.237,994.19 L974.837,947.424 L974.278,893.356"/>
   <path vector-effect="none" fill-rule="evenodd" d="M1826.37,401.606 L1842.79,426.544 L1877.42,452.838 L1878.46,473.982 L1867.06,498.146 L1852.87,512.883 L1841.12,506.734 L1840.59,536.977 L1830.78,586.269 L1846.13,579.523 L1855.48,594.704 L1875.84,590.959 L1884.62,602.145 L1878.9,631.998 L1871.46,638.026 L1871.62,682.797 L1880.12,697.91 L1870.06,715.59 L1838.62,726.406 L1803.03,792.186 L1783.59,782.819 L1757.93,786.139 L1752.26,768.593 L1731.86,760.454 L1726.9,767.974 L1700.58,768.588 L1676.64,749.627 L1667.55,719.958 L1653.71,695.185 L1664.5,680.221 L1679.95,684.051 L1704.18,664.852 L1706.86,641.358 L1715.49,631.488 L1713.62,610.278 L1693.94,604.812 L1677.32,582.459 L1656.01,575.539 L1643.9,540.358 L1650.23,526.366 L1647.17,498.472 L1659.46,486.261 L1670.64,488.446 L1687.31,464.718 L1688.22,452.936 L1719,438.194 L1738.43,446.271 L1752.17,460.491 L1779.04,462.541 L1798.77,432.437 L1815.83,425.828 L1826.37,401.606"/>
   <path vector-effect="none" fill-rule="evenodd" d="M1130.3,939.729 L1143.64,917.151 L1134.95,895.336 L1145.88,880.456 L1113.66,846.1 L1121.66,824.386 L1124.56,790.381 L1147.75,796.305 L1153.17,815.208 L1166.49,792.624 L1190.76,806.529 L1216.8,799.497 L1256.76,814.693 L1259.28,879.443 L1263.54,902.188 L1282.18,889.246 L1291.23,896.581 L1289.51,928.047 L1293.56,942.869 L1314.39,935.368 L1326.31,950.834 L1324.04,967.768 L1298.95,984.141 L1299.53,1019.75 L1307.97,1045.46 L1306.59,1073 L1264.61,1080.08 L1242.08,1075.57 L1232.24,1066.85 L1181.62,1082.37 L1178.14,1039.93 L1156.07,1030.17 L1145.27,1012.13 L1129.97,1016.1 L1101.69,1007.11 L1113.99,966.004 L1124.15,960.283 L1130.3,939.729"/>
   <path vector-effect="none" fill-rule="evenodd" d="M568.586,651.077 L577.783,655.891 L585.796,692.236 L592.53,704.728 L572.796,718.709 L535.143,727.05 L526.45,735.462 L502.942,724.019 L495.992,741.822 L471.99,735.595 L432.321,746.328 L407.436,767.686 L390.647,759.484 L384.419,769.435 L340.598,786.313 L327.532,785.049 L332.957,738.099 L322.418,719.933 L317.994,693.127 L327.453,686.132 L363.607,693.585 L356.184,670.449 L398.319,652.087 L410.859,658.564 L446.636,642.202 L475.444,625.162 L479.047,642.646 L519.157,645.119 L536.534,637.524 L556.795,655.247 L568.586,651.077"/>
   <path vector-effect="none" fill-rule="evenodd" d="M574.048,724.1 L578.434,742.966 L592.139,756.107 L592.442,781.183 L569.466,801.454 L551.414,797.131 L543.984,820.166 L503.526,820.321 L503.763,808.477 L476.634,816.463 L476.375,800.617 L497.254,765.673 L509.067,761.514 L530.434,739.792 L574.048,724.1"/>
   <path vector-effect="none" fill-rule="evenodd" d="M336.325,477.284 L347.249,527.146 L340.972,564.787 L352.622,571.191 L373.841,569.285 L387.004,560.002 L401.754,570.652 L408.306,593.701 L421.322,613.411 L445.773,623.658 L446.636,642.202 L410.859,658.564 L398.319,652.087 L356.184,670.449 L363.607,693.585 L327.453,686.132 L317.994,693.127 L322.418,719.933 L332.957,738.099 L327.532,785.049 L278.437,756.538 L259.873,766.594 L243.762,787.437 L227.725,780.587 L204.307,786.196 L194.241,781.245 L199.917,759.383 L195.5,741.8 L210.845,728.805 L200.113,704.003 L204.658,684.667 L190.037,672.668 L197.357,643.054 L220.476,604.445 L212.667,568.058 L232.642,534.412 L245.404,502.69 L268.758,487.836 L280.388,494.253 L298.171,473.567 L336.325,477.284"/>
   <path vector-effect="none" fill-rule="evenodd" d="M1202.33,441.254 L1196.47,448.664 L1205.59,506.09 L1219,533.572 L1254.69,545.788 L1258.04,557.926 L1243.16,579.076 L1268.01,585.106 L1286.79,611.699 L1274.84,618.609 L1251.37,648.267 L1232.12,658.513 L1232.86,691.508 L1212.09,698.986 L1197.64,683.279 L1184.47,694.024 L1166.85,695.168 L1152.47,709.757 L1135.49,713.583 L1108.51,711.28 L1082.72,715.656 L1049.05,729.883 L1022.72,730.238 L949.35,756.774 L941.778,723.165 L922.738,700.403 L915.432,703.711 L902.611,680.173 L911.073,663.79 L901.74,640.559 L915.296,606.176 L954.59,547.703 L965.506,513.079 L955.264,500.317 L956.131,500.393 L950.515,474.857 L944.907,469.09 L949.815,443.163 L947.157,433.703 L967.373,422.304 L983.94,402.672 L997.716,444.736 L1036.64,469.217 L1025.18,410.233 L1040.61,423.438 L1041.02,378.664 L1059.28,359.163 L1074.23,357.822 L1097.87,376.995 L1115.33,366.636 L1141.19,370.171 L1169.38,397.612 L1190.7,403.375 L1209.13,391.758 L1214.92,426.506 L1202.33,441.254"/>
   <path vector-effect="none" fill-rule="evenodd" d="M3068.7,1015.25 L3088.58,1020.32 L3120.19,1035.24 L3144.67,1052.38 L3144.74,1066.85 L3125.27,1085.48 L3130.66,1098.93 L3192.95,1115.52 L3208.65,1133.47 L3201.3,1155.41 L3179.27,1172.61 L3162.57,1204.55 L3166.3,1216.58 L3145.27,1231.19 L3138.11,1249.2 L3121.16,1237.74 L3111.73,1249.04 L3089.14,1259.6 L3068.52,1266.33 L3065.62,1239.87 L3057.09,1219.67 L3040.09,1209.5 L3018.9,1210.92 L2997.26,1220.19 L2979.39,1209.95 L2954.69,1211.15 L2940.94,1190.63 L2953.33,1174.26 L2971.65,1176.64 L2990.38,1156.69 L2994.79,1141.17 L2976.94,1130.93 L2962.51,1152.44 L2959.85,1137.83 L2964.23,1107.84 L2990.41,1110.68 L2994.66,1097.78 L3028.97,1081.34 L3037.24,1059.47 L3069.37,1065.24 L3062.99,1038.59 L3068.7,1015.25"/>
   <path vector-effect="none" fill-rule="evenodd" d="M2444.61,1301.86 L2456.79,1290.82 L2475.22,1292.02 L2486.99,1300.68 L2511.4,1304.89 L2582.37,1325.21 L2614.47,1319.36 L2630.3,1305.89 L2649.44,1309.72 L2629.86,1326.9 L2632.22,1345.46 L2661.69,1339.41 L2703.21,1323.58 L2719.1,1323.25 L2728.11,1334.32 L2745.03,1331.41 L2747.74,1359.19 L2737.83,1391.45 L2707.47,1397.48 L2695.65,1388.86 L2651.8,1384.82 L2614.21,1407.44 L2617.01,1447.06 L2585.86,1464.82 L2546.24,1476.76 L2528.81,1473.02 L2516.86,1480.14 L2490.27,1467.9 L2472.9,1449.68 L2457.81,1423.71 L2432.77,1428.65 L2421.32,1414.74 L2397.05,1407.88 L2376.48,1398.63 L2338.87,1406.64 L2346.77,1380.86 L2343.78,1359.62 L2376.7,1328.94 L2420.52,1333.15 L2442.7,1317.51 L2444.61,1301.86"/>
   <path vector-effect="none" fill-rule="evenodd" d="M446.636,642.202 L445.773,623.658 L421.322,613.411 L408.306,593.701 L401.754,570.652 L387.004,560.002 L373.841,569.285 L352.622,571.191 L340.972,564.787 L347.249,527.146 L336.325,477.284 L352.821,469.651 L365.935,478.835 L375.255,463.908 L372.435,447.808 L382.491,434.27 L394.595,453.903 L413.301,450.426 L409.131,421.009 L436.627,407.82 L461.874,408.915 L461.494,422.067 L501.848,420.629 L509.399,442.445 L536.651,468.755 L521.671,488.441 L527.751,507.476 L567.925,527.075 L577.128,550.352 L586.124,594.703 L580.072,612.597 L589.174,637.178 L568.586,651.077 L556.795,655.247 L536.534,637.524 L519.157,645.119 L479.047,642.646 L475.444,625.162 L446.636,642.202"/>
   <path vector-effect="none" fill-rule="evenodd" d="M1215.67,1617.22 L1223.22,1579.66 L1217.14,1556.77 L1216.22,1525.09 L1232.39,1522.49 L1260.6,1545.88 L1276.09,1530.04 L1288.42,1531.05 L1295.95,1504.02 L1321.77,1491.65 L1339.15,1495.7 L1342.61,1474.91 L1339.97,1431.25 L1353.26,1431.01 L1351.66,1407.19 L1357.75,1386.62 L1392.47,1394.69 L1396.8,1373.98 L1414.71,1349.09 L1431.57,1337.27 L1470.73,1333.82 L1498.04,1357.05 L1510.6,1343.56 L1535.23,1333.66 L1543.54,1306.67 L1560.46,1293.51 L1573.73,1293.23 L1592.81,1331.58 L1590.41,1351.14 L1577.83,1376.48 L1582.45,1396.58 L1604.66,1418.05 L1615.51,1414.95 L1635.67,1440.19 L1625.87,1452.6 L1631.19,1475.38 L1627.61,1498.8 L1633.65,1512.42 L1630.35,1543.76 L1640.19,1565.57 L1624.91,1568.34 L1596.96,1585.92 L1574.73,1621.05 L1553.59,1641.78 L1534.23,1628.42 L1520.8,1630 L1503.1,1595.7 L1478.73,1589.83 L1422.62,1626.17 L1418.25,1636.35 L1387.72,1662.86 L1371.74,1662.89 L1356.81,1682.75 L1347.96,1704.41 L1336.62,1712.7 L1306.39,1712.88 L1284.78,1716.38 L1258.03,1695.76 L1241.44,1670.69 L1236.33,1646.57 L1215.67,1617.22"/>
   <path vector-effect="none" fill-rule="evenodd" d="M1220.55,1772.97 L1230.7,1768.55 L1274.8,1784.02 L1287.28,1783.72 L1302.9,1799.48 L1296.1,1817.35 L1282.92,1804.43 L1267.25,1811.04 L1241.37,1801.02 L1220.55,1772.97"/>
   <path vector-effect="none" fill-rule="evenodd" d="M1404.69,1661.59 L1417.72,1665.26 L1435.77,1683.82 L1423.92,1721.04 L1377.97,1706.83 L1375.2,1675.01 L1401.31,1670.53 L1404.69,1661.59"/>
   <path vector-effect="none" fill-rule="evenodd" d="M3065.62,1239.87 L3068.52,1266.33 L3089.14,1259.6 L3096.07,1292.85 L3075.51,1314.04 L3071.69,1334.86 L3085.96,1347.49 L3090.92,1384.58 L3103.44,1397.11 L3115.67,1383.33 L3165.98,1397.95 L3159.84,1413.38 L3137.64,1400.33 L3120.58,1421.72 L3128.28,1441.87 L3097.8,1466.45 L3077.85,1475.85 L3068.48,1454.29 L3058.07,1451.07 L3049.54,1399.33 L3021.7,1408.26 L3022.29,1397.77 L2975.78,1363.55 L2970.84,1342.23 L2991.38,1276.38 L3007.05,1264.13 L3016.55,1267.31 L3018.63,1292.4 L3062.57,1309.37 L3062,1288.3 L3052.79,1279.89 L3048,1255.96 L3065.62,1239.87"/>
   <path vector-effect="none" fill-rule="evenodd" d="M1075.26,1172.14 L1100.01,1171.61 L1102.04,1209.98 L1114.19,1222.87 L1129.17,1254.43 L1144.49,1324.21 L1162.6,1329.68 L1183.78,1319.61 L1191.9,1328.19 L1206.71,1320.21 L1240.62,1326.98 L1255.79,1346.67 L1269.18,1345.14 L1278.64,1359.08 L1280.54,1378.99 L1294.94,1386.76 L1343.5,1355.18 L1357.75,1386.62 L1351.66,1407.19 L1353.26,1431.01 L1339.97,1431.25 L1342.61,1474.91 L1339.15,1495.7 L1321.77,1491.65 L1295.95,1504.02 L1288.42,1531.05 L1276.09,1530.04 L1260.6,1545.88 L1232.39,1522.49 L1216.22,1525.09 L1217.14,1556.77 L1223.22,1579.66 L1215.67,1617.22 L1195.84,1620.83 L1184.15,1611.96 L1140.96,1608.35 L1115.62,1593.05 L1075.52,1584.38 L1042.51,1555.23 L1034.39,1536.1 L1035.62,1521.72 L1031.78,1514.81 L1034.34,1495.27 L1049.53,1493.94 L1057.15,1466.93 L1041.91,1437.97 L1029.35,1388.16 L1038.7,1382.38 L1034.39,1339.86 L1046.81,1329.08 L1040.5,1299.56 L1002.99,1293.69 L995.997,1282.55 L1004.76,1242.48 L1015.9,1215.78 L1021.97,1196.54 L1041.72,1182.44 L1075.26,1172.14"/>
   <path vector-effect="none" fill-rule="evenodd" d="M635.529,1134.46 L638.085,1116.24 L664.104,1121.27 L661.163,1105.18 L672.979,1091.77 L694.614,1096.38 L728.01,1078.32 L746.005,1103.67 L762.11,1101.17 L775.289,1111.58 L795.542,1092.32 L796.488,1062.09 L832.987,1067.99 L842.381,1091.23 L904.78,1083.58 L906.094,1108.72 L925.42,1119.64 L934.813,1153.4 L928.259,1177.86 L942.009,1192.24 L910.267,1211.85 L883.928,1220.07 L872.9,1234.91 L869.483,1263.59 L857.243,1302.03 L845.072,1299.64 L820.966,1292.22 L815.414,1304.9 L794.705,1318.87 L792.192,1337.09 L781.657,1355.91 L761.866,1359.4 L741.493,1349.67 L730.391,1315.73 L718.593,1358.14 L706.415,1355.72 L690.108,1379.28 L689.968,1400.35 L672.153,1401.36 L664.794,1384.88 L669.261,1374.75 L654.717,1349.7 L634.678,1326.79 L637.672,1294.12 L618.331,1283.12 L623.641,1263.84 L611.843,1257.48 L612.977,1225.96 L622.068,1213.61 L632.994,1190.9 L615.129,1164.21 L635.239,1156.84 L635.529,1134.46"/>
   <path vector-effect="none" fill-rule="evenodd" d="M2703.21,1323.58 L2661.69,1339.41 L2664.99,1314.64 L2649.44,1309.72 L2630.3,1305.89 L2614.47,1319.36 L2582.37,1325.21 L2511.4,1304.89 L2533.18,1281.3 L2523.67,1264.91 L2504.99,1267.65 L2504.85,1242.65 L2530.62,1239.05 L2540.02,1215.99 L2555.43,1209.08 L2583.72,1206.95 L2585.81,1174.2 L2605.95,1175.48 L2619.2,1132.92 L2643.17,1129.17 L2645.74,1116.18 L2678.53,1111.66 L2676.02,1137.8 L2698.69,1154.99 L2738.26,1154.8 L2737.85,1175.82 L2715.15,1173.11 L2703.1,1197.34 L2695.94,1256.07 L2670.89,1262.41 L2674.44,1290.24 L2703.21,1323.58"/>
   <path vector-effect="none" fill-rule="evenodd" d="M3021.7,1408.26 L3049.54,1399.33 L3058.07,1451.07 L3068.48,1454.29 L3077.85,1475.85 L3097.8,1466.45 L3128.28,1441.87 L3141.26,1462.3 L3152.99,1457.69 L3181.39,1486.85 L3178.05,1515.58 L3192.94,1517.71 L3212.5,1547.69 L3197.98,1554.78 L3199.94,1583.8 L3187.27,1605.45 L3205.52,1627.47 L3216.6,1618.87 L3245.76,1619.13 L3268.59,1638.75 L3263.17,1673.94 L3243.23,1699.16 L3233.84,1742.01 L3130.34,1707.46 L3117.08,1675.18 L3096.86,1672.74 L3079.88,1659.96 L3054.15,1661.14 L3046.58,1654.14 L3028.57,1659.69 L3010.43,1636.32 L3015.59,1623.47 L3044.27,1585.67 L3031.35,1579.68 L3030.78,1558.62 L3013.46,1552.37 L3002.29,1562.25 L2982.33,1555.84 L2970.79,1526.26 L2951.22,1513.3 L2962.34,1488.97 L2969.57,1470.98 L2990.75,1470.89 L3002.54,1434.76 L3004.27,1404.63 L3021.7,1408.26"/>
   <path vector-effect="none" fill-rule="evenodd" d="M3071.47,797.149 L3059.32,810.92 L3044.47,795.606 L3022.38,799.596 L3004.54,790.676 L2991.13,810.937 L2959.15,819.592 L2930.16,821.834 L2925.31,814.973 L2902.36,833.34 L2895.14,822.391 L2875.81,823.869 L2864.06,786.343 L2855.51,783.2 L2807.36,798.703 L2795.81,773.011 L2800.5,739.102 L2787.76,733.064 L2754.66,688.944 L2774.36,680.948 L2800.21,686.474 L2821.41,668.035 L2818.58,628.405 L2831.38,633.127 L2928.4,629.727 L3011.31,613.54 L3014.75,629.52 L3033.26,641.109 L3031.83,666.013 L3041.81,674.477 L3045.03,694.387 L3038.3,720.3 L3063.68,765.147 L3071.47,797.149"/>
   <path vector-effect="none" fill-rule="evenodd" d="M594.203,1113.52 L597.375,1088.77 L609.08,1076.67 L607.876,1051.52 L589.876,1045.9 L596.184,1025.39 L587.367,996.895 L573.485,985.061 L590.761,960.303 L640.598,945.137 L647.038,932.549 L670.06,921.483 L673.107,936.26 L725.131,944.96 L736.288,957.833 L751.206,948.641 L762.084,954.896 L783.797,958.17 L785.611,947.791 L804.077,928.365 L818.853,940.231 L829.563,938.553 L863.896,908.669 L882.631,915.602 L896.005,903.609 L959.49,881.523 L974.278,893.356 L974.837,947.424 L967.237,994.19 L955.683,1015.58 L959.822,1048.88 L933.475,1047.89 L919.096,1061.12 L904.78,1083.58 L842.381,1091.23 L832.987,1067.99 L796.488,1062.09 L795.542,1092.32 L775.289,1111.58 L762.11,1101.17 L746.005,1103.67 L728.01,1078.32 L694.614,1096.38 L672.979,1091.77 L661.163,1105.18 L664.104,1121.27 L638.085,1116.24 L635.529,1134.46 L616.084,1115.54 L594.203,1113.52"/>
   <path vector-effect="none" fill-rule="evenodd" d="M956.131,500.393 L955.264,500.317 L939.653,518.71 L900.098,491.482 L882.467,483.322 L872.477,467.932 L847.309,485.451 L835.548,460.669 L794.172,454.301 L786.446,472.058 L775.968,452.652 L767.881,474.329 L736.773,537.411 L682.671,516.634 L686.863,509.11 L682.547,470.479 L663.57,458.181 L665.482,428.032 L649.381,422.587 L667.535,405.807 L714.075,412.728 L723.52,385.907 L747.2,365.659 L811.465,359.63 L860.107,371.917 L862.262,357.609 L882.942,341.004 L912.135,346.242 L920.336,332.471 L938.855,330.158 L934.974,383.858 L948.773,415.393 L943.286,428.089 L947.851,445.626 L942.075,471.476 L946.41,471.859 L956.131,500.393"/>
   <path vector-effect="none" fill-rule="evenodd" d="M2795.81,773.011 L2781.55,791.868 L2754.22,795.453 L2741.49,774.94 L2727.72,771.458 L2722.15,790.841 L2705.92,784.572 L2696.29,770.819 L2705.27,752.964 L2699.67,702.632 L2691.54,692.917 L2678.46,706.567 L2660.27,704.108 L2651.03,643.015 L2627.85,623.13 L2621.55,571.422 L2613.7,557.766 L2645.95,544.03 L2659.76,518.592 L2677.03,520.996 L2698.06,505.213 L2730.86,509.891 L2741.92,500.053 L2752,505.939 L2771.98,492.701 L2786.29,529.097 L2761.89,543.382 L2751.43,571.676 L2763.63,600.052 L2777.51,615.375 L2818.58,628.405 L2821.41,668.035 L2800.21,686.474 L2774.36,680.948 L2754.66,688.944 L2787.76,733.064 L2800.5,739.102 L2795.81,773.011"/>
   <path vector-effect="none" fill-rule="evenodd" d="M1250.26,703.502 L1232.86,691.508 L1232.12,658.513 L1251.37,648.267 L1274.84,618.609 L1286.79,611.699 L1268.01,585.106 L1243.16,579.076 L1258.04,557.926 L1254.69,545.788 L1219,533.572 L1205.59,506.09 L1196.47,448.664 L1202.33,441.254 L1222.72,427.163 L1223.93,412.772 L1242.24,412.994 L1246.01,430.439 L1269.41,432.398 L1283.82,416.474 L1274.96,397.288 L1276.07,363.124 L1303.99,352.276 L1305.62,332.649 L1298.93,318.915 L1281.73,316.164 L1280.89,295.011 L1297.01,268.687 L1308.03,272.24 L1325.33,263.136 L1322.53,244.457 L1379.24,221.472 L1395.99,250.515 L1411.98,246.553 L1406.16,275.063 L1443.66,274.166 L1457.25,256.824 L1486.41,251.276 L1515.96,229.939 L1537.48,243.518 L1548.24,228.568 L1561.23,240.141 L1582.73,210.233 L1595.86,198.1 L1610.93,216.413 L1607.65,235.913 L1618.31,255.193 L1633.99,232.716 L1679.99,211.285 L1714.39,204.733 L1720.13,209.128 L1710.94,249.247 L1723.2,259.413 L1692.3,321.558 L1679.93,335.085 L1668.68,356.6 L1657.12,359.65 L1652.54,373.78 L1613.88,366.801 L1599.97,377.56 L1578.33,408.779 L1570.61,429.242 L1571.07,467.473 L1554.63,476.707 L1524.54,449.287 L1507.26,468.98 L1482.58,482.807 L1481.24,510.359 L1474.33,520.34 L1440.83,524.222 L1428.12,573.244 L1413.16,585.202 L1419.85,621.307 L1410.22,642.917 L1397.29,640.547 L1386.67,663.391 L1363.33,681.24 L1342.67,676.91 L1328,684.923 L1263.41,703.282 L1250.26,703.502"/>
   <path vector-effect="none" fill-rule="evenodd" d="M1553.59,1641.78 L1547.85,1692.65 L1533.48,1706.01 L1531.74,1728.25 L1489.59,1767.05 L1485.04,1802.23 L1435.76,1750.94 L1409.42,1735.68 L1411.4,1733.2 L1423.92,1721.04 L1435.77,1683.82 L1417.72,1665.26 L1404.69,1661.59 L1418.25,1636.35 L1422.62,1626.17 L1478.73,1589.83 L1503.1,1595.7 L1520.8,1630 L1534.23,1628.42 L1553.59,1641.78"/>
   <path vector-effect="none" fill-rule="evenodd" d="M2962.34,1488.97 L2951.22,1513.3 L2970.79,1526.26 L2982.33,1555.84 L3002.29,1562.25 L3013.46,1552.37 L3030.78,1558.62 L3031.35,1579.68 L3044.27,1585.67 L3015.59,1623.47 L3010.43,1636.32 L3028.57,1659.69 L3041.12,1688 L3037.07,1696.97 L2993.08,1707.61 L2984.53,1717.63 L2962.46,1716.36 L2932.94,1721.22 L2914.79,1743.83 L2899.93,1740.33 L2881.99,1789.22 L2867,1802.79 L2837.67,1803.68 L2797.92,1815.77 L2781.51,1808.21 L2764,1818.98 L2736.83,1813.39 L2715.53,1798.95 L2708.38,1770.9 L2727.57,1732.64 L2766.57,1717.92 L2754.6,1696.16 L2769.36,1686.54 L2795.23,1653.93 L2796.81,1627.73 L2772.19,1610.47 L2770.56,1564.36 L2786.66,1561.39 L2802.58,1546.57 L2814.6,1552.55 L2855.27,1552.35 L2869,1529.51 L2859.52,1510.54 L2875.34,1497.02 L2872.56,1469.25 L2885.92,1467.41 L2897.57,1494.39 L2919.73,1462.82 L2933.42,1470.2 L2929.56,1491 L2962.34,1488.97"/>
   <path vector-effect="none" fill-rule="evenodd" d="M2473.11,640.753 L2492.15,643.318 L2493.68,606.58 L2517.64,587.094 L2523.87,571.712 L2590.29,569.425 L2595.98,589.523 L2613.26,591.944 L2610.72,618.093 L2624.95,641.362 L2628.59,666.588 L2612.55,685.3 L2592.49,698.49 L2586.37,684.943 L2559.41,683.21 L2533.1,711.767 L2501.69,711.039 L2483.93,688.827 L2478.17,670.03 L2466.09,681.077 L2463.38,642.743 L2473.11,640.753"/>
   <path vector-effect="none" fill-rule="evenodd" d="M1181.62,1082.37 L1232.24,1066.85 L1242.08,1075.57 L1264.61,1080.08 L1306.59,1073 L1311.19,1081.28 L1344.76,1080.08 L1355.49,1088.86 L1339.99,1106.03 L1356.56,1129.77 L1379.08,1123.7 L1424.85,1102.38 L1446.8,1125.21 L1461.58,1127.71 L1474.23,1145.84 L1511.27,1134.3 L1536.61,1148.15 L1542.22,1155.17 L1531.45,1191.19 L1539.8,1219.49 L1562.29,1225.2 L1569.86,1207.37 L1584.73,1242.76 L1560.46,1293.51 L1543.54,1306.67 L1535.23,1333.66 L1510.6,1343.56 L1498.04,1357.05 L1470.73,1333.82 L1431.57,1337.27 L1414.71,1349.09 L1396.8,1373.98 L1392.47,1394.69 L1357.75,1386.62 L1343.5,1355.18 L1294.94,1386.76 L1280.54,1378.99 L1278.64,1359.08 L1269.18,1345.14 L1255.79,1346.67 L1240.62,1326.98 L1206.71,1320.21 L1191.9,1328.19 L1183.78,1319.61 L1162.6,1329.68 L1144.49,1324.21 L1129.17,1254.43 L1114.19,1222.87 L1102.04,1209.98 L1100.01,1171.61 L1075.26,1172.14 L1075.41,1149.76 L1096.26,1112.02 L1114.66,1103.05 L1139.27,1103.82 L1181.62,1082.37"/>
   <path vector-effect="none" fill-rule="evenodd" d="M2097.89,1682.11 L2124.27,1685.27 L2140.31,1696.91 L2169.28,1688.4 L2179.49,1707.51 L2212.15,1709.76 L2215.76,1721.84 L2241.01,1728.83 L2257.26,1724.67 L2284.36,1743.6 L2307.59,1741.22 L2317.21,1730.03 L2334.08,1729.84 L2339.65,1739.42 L2328.72,1770.25 L2343.66,1785.71 L2347.05,1814.86 L2342.39,1844.8 L2331.19,1879.56 L2315.8,1883.79 L2303.34,1910.57 L2289.44,1918.84 L2275.72,1898.19 L2250.22,1906.99 L2229.06,1904.24 L2214.82,1891.43 L2182.52,1882.64 L2168.38,1868.52 L2145.04,1859.01 L2125.3,1861.59 L2112.52,1879.11 L2102.27,1873.13 L2087.56,1879.99 L2086.8,1903.61 L2059.17,1904.3 L2038.02,1901.49 L2046.05,1850.76 L2065.04,1833.69 L2096.36,1830.63 L2107.42,1824.83 L2104.38,1804.89 L2068.6,1795.8 L2068.27,1787.88 L2103.05,1735.08 L2088.53,1714.33 L2097.89,1682.11"/>
   <path vector-effect="none" fill-rule="evenodd" d="M1976.87,1441.97 L2002.68,1451.72 L2005.8,1482.2 L2021.32,1475.42 L2042.94,1482.22 L2052.29,1499.99 L2023.93,1525.6 L2030.27,1548.41 L2065.82,1558.83 L2074.96,1567.37 L2065.13,1581.14 L2069.08,1612.99 L2081.6,1611.25 L2086.21,1633.93 L2075.86,1642.41 L2049.45,1627.39 L2026.06,1632.3 L2012.41,1649.75 L1992.44,1656.21 L1969.47,1642.72 L1976.55,1618.24 L1974.44,1598.35 L1963.08,1596.21 L1957.06,1618.15 L1943.49,1634.27 L1904.78,1630.14 L1886.25,1616.94 L1897.08,1590.1 L1894.6,1575.45 L1868.56,1568.27 L1836.66,1580.39 L1815.62,1601.2 L1757.94,1590.31 L1733.08,1579.23 L1717.16,1531.97 L1682.34,1524.05 L1662.83,1547.57 L1655.54,1573.33 L1640.19,1565.57 L1630.35,1543.76 L1633.65,1512.42 L1627.61,1498.8 L1631.19,1475.38 L1625.87,1452.6 L1635.67,1440.19 L1615.51,1414.95 L1604.66,1418.05 L1582.45,1396.58 L1577.83,1376.48 L1590.41,1351.14 L1592.81,1331.58 L1673.99,1332.58 L1695.69,1314.5 L1748.8,1359.33 L1781.88,1365.77 L1787.35,1351.71 L1816.44,1328.88 L1845.31,1332.34 L1868.62,1327.49 L1880.12,1315.18 L1890.38,1331.72 L1889.13,1348.74 L1871.38,1361.9 L1867.98,1384.02 L1890.66,1412.01 L1930.98,1404.43 L1929.9,1455.67 L1935.79,1471.88 L1969.6,1469.07 L1976.87,1441.97"/>
   <path vector-effect="none" fill-rule="evenodd" d="M1757.94,1590.31 L1732.45,1634.45 L1729.8,1657.93 L1740.57,1679.8 L1756.06,1686.23 L1756.94,1662.61 L1796.36,1681.34 L1783.62,1721.18 L1783.04,1752.72 L1764.6,1773.71 L1741.82,1781.21 L1737.1,1808.48 L1717.06,1814.87 L1704.58,1827.08 L1710.46,1855.16 L1699.35,1860.9 L1697.96,1891.05 L1712.11,1903.96 L1727.26,1939.31 L1701.28,1929.46 L1694.69,1934.22 L1681.92,1902.99 L1660.36,1917.14 L1651.44,1894.1 L1639.81,1906.37 L1623.5,1898.54 L1615.61,1908.46 L1577.92,1912.13 L1575.9,1892.24 L1551.86,1869.31 L1555.21,1906.42 L1543.71,1939.74 L1546.96,1978.16 L1559.69,2009.41 L1540.13,2031.58 L1529.04,2013.61 L1522.28,1963.07 L1538.87,1944.63 L1540.5,1889.48 L1526.34,1854.16 L1496.35,1828.12 L1485.04,1802.23 L1489.59,1767.05 L1531.74,1728.25 L1533.48,1706.01 L1547.85,1692.65 L1553.59,1641.78 L1574.73,1621.05 L1596.96,1585.92 L1624.91,1568.34 L1640.19,1565.57 L1655.54,1573.33 L1662.83,1547.57 L1682.34,1524.05 L1717.16,1531.97 L1733.08,1579.23 L1757.94,1590.31"/>
   <path vector-effect="none" fill-rule="evenodd" d="M2289.44,1918.84 L2297.16,1949.6 L2340.74,1949.88 L2346.58,1942.38 L2374.64,1935.03 L2393.52,1945.48 L2429.3,1942.56 L2437.05,1960.16 L2419.49,2024.75 L2408.59,2027.98 L2408.14,2062.14 L2382.78,2068.36 L2379.35,2039.21 L2361.44,2040.66 L2328.12,2059.49 L2319.93,2035.28 L2296.61,2037.66 L2281.26,2027.43 L2254.21,2032.18 L2237.72,2025.8 L2207.73,2047.43 L2195.94,2037.42 L2177.3,2049.3 L2149.99,2044.78 L2132.81,2022.55 L2103.3,2011.3 L2086.3,1999.59 L2064.66,2003.33 L2055.85,2014.55 L2030.51,2007.5 L2004.43,2010.9 L2007.41,1994.02 L2028.36,1987.61 L2037.81,1967.24 L2032.76,1937.95 L2059.17,1904.3 L2086.8,1903.61 L2087.56,1879.99 L2102.27,1873.13 L2112.52,1879.11 L2125.3,1861.59 L2145.04,1859.01 L2168.38,1868.52 L2182.52,1882.64 L2214.82,1891.43 L2229.06,1904.24 L2250.22,1906.99 L2275.72,1898.19 L2289.44,1918.84"/>
   <path vector-effect="none" fill-rule="evenodd" d="M1979.6,953.985 L1937.01,948.246 L1931.1,968.871 L1935.59,991.573 L1917.93,1004.75 L1902.67,973.361 L1888.22,978.874 L1889.76,946.085 L1882.58,936.34 L1862.5,934.851 L1862.8,907.232 L1848.64,920.656 L1820.31,935.649 L1812.82,953.516 L1788.59,937.213 L1752.92,921.35 L1751.22,897.526 L1729.28,862.944 L1714.16,865.737 L1696.58,843.325 L1707.41,816.509 L1720.14,799.054 L1726.9,767.974 L1731.86,760.454 L1752.26,768.593 L1757.93,786.139 L1783.59,782.819 L1803.03,792.186 L1838.62,726.406 L1870.06,715.59 L1880.12,697.91 L1871.62,682.797 L1871.46,638.026 L1878.9,631.998 L1884.62,602.145 L1875.84,590.959 L1855.48,594.704 L1846.13,579.523 L1830.78,586.269 L1840.59,536.977 L1841.12,506.734 L1852.87,512.883 L1867.06,498.146 L1878.46,473.982 L1911.21,490.899 L1923.45,502.337 L1930.28,563.4 L1920.63,575.852 L1941.86,595.847 L1958.27,598.369 L1960.5,615.645 L2006.67,641.389 L2001.69,673.934 L2029.2,716.728 L2050.77,672.215 L2060.36,684.749 L2082.2,684.996 L2090.15,696.093 L2099.72,733.625 L2082.37,756.079 L2062.44,753.337 L2050.6,784.075 L2014.7,784.121 L2009.14,812.673 L1986.24,850.497 L1954.48,865.293 L1962.25,879.021 L1985.32,887.281 L1981.39,917.265 L1991.88,929.871 L1979.6,953.985"/>
   <path vector-effect="none" fill-rule="evenodd" d="M2678.53,1111.66 L2645.74,1116.18 L2643.17,1129.17 L2619.2,1132.92 L2605.95,1175.48 L2585.81,1174.2 L2583.72,1206.95 L2555.43,1209.08 L2540.02,1215.99 L2530.62,1239.05 L2504.85,1242.65 L2504.99,1267.65 L2523.67,1264.91 L2533.18,1281.3 L2511.4,1304.89 L2486.99,1300.68 L2475.22,1292.02 L2456.79,1290.82 L2444.61,1301.86 L2434.68,1292 L2401.17,1292.42 L2386.69,1298.03 L2386.44,1315.12 L2368.88,1313.95 L2376.07,1285.49 L2373.51,1257.7 L2346.07,1220.35 L2350.62,1204.87 L2400.56,1181.89 L2409.3,1143.01 L2404.56,1121.65 L2426.18,1127.03 L2438.77,1109.44 L2446.43,1073.12 L2469.07,1062.77 L2517.09,1067.21 L2517.57,1046.19 L2538.81,1043.62 L2552.48,1022.14 L2565.05,1017.68 L2575.58,1031.51 L2597.64,1043.44 L2613.04,1022.06 L2630.93,1016.61 L2647.67,1029.5 L2649.17,1033.54 L2645.32,1053.03 L2669.23,1063.73 L2689.79,1086.06 L2678.53,1111.66"/>
   <path vector-effect="none" fill-rule="evenodd" d="M2859.52,1510.54 L2869,1529.51 L2855.27,1552.35 L2814.6,1552.55 L2802.58,1546.57 L2786.66,1561.39 L2770.56,1564.36 L2772.19,1610.47 L2796.81,1627.73 L2795.23,1653.93 L2769.36,1686.54 L2754.6,1696.16 L2766.57,1717.92 L2727.57,1732.64 L2707.34,1730.09 L2688.8,1714.48 L2681.19,1694.3 L2679.29,1653.42 L2665.02,1640.71 L2671.54,1606.93 L2659.54,1586.46 L2643.84,1582.86 L2625.15,1598.78 L2591.91,1592.74 L2564.69,1617.31 L2541.1,1626.33 L2530.69,1623.04 L2524.47,1581.88 L2513.52,1600.9 L2483.76,1609.5 L2474.39,1562.87 L2479.27,1542.14 L2502.93,1531.84 L2510.36,1512.59 L2496.66,1491.98 L2490.27,1467.9 L2516.86,1480.14 L2528.81,1473.02 L2546.24,1476.76 L2585.86,1464.82 L2617.01,1447.06 L2614.21,1407.44 L2651.8,1384.82 L2695.65,1388.86 L2707.47,1397.48 L2737.83,1391.45 L2747.74,1359.19 L2767.7,1364.35 L2783.52,1379.77 L2785.2,1395.65 L2775.94,1417.44 L2795.12,1421.23 L2808.91,1470.71 L2802.37,1491.35 L2827.67,1511.27 L2859.52,1510.54"/>
   <path vector-effect="none" fill-rule="evenodd" d="M974.278,893.356 L959.49,881.523 L896.005,903.609 L882.631,915.602 L863.896,908.669 L829.563,938.553 L818.853,940.231 L804.077,928.365 L803.688,903.292 L809.472,868.229 L802.613,866.295 L820.588,852.093 L830.604,818.726 L828.172,806.648 L871.043,798.612 L905.084,810.854 L920.807,781.934 L949.35,756.774 L1022.72,730.238 L1049.05,729.883 L1082.72,715.656 L1108.51,711.28 L1135.49,713.583 L1152.47,709.757 L1166.85,695.168 L1184.47,694.024 L1197.64,683.279 L1212.09,698.986 L1232.86,691.508 L1250.26,703.502 L1268.09,731.334 L1240.88,742.237 L1226.62,755.534 L1223.44,793.468 L1216.8,799.497 L1190.76,806.529 L1166.49,792.624 L1153.17,815.208 L1147.75,796.305 L1124.56,790.381 L1121.66,824.386 L1113.66,846.1 L1145.88,880.456 L1134.95,895.336 L1143.64,917.151 L1130.3,939.729 L1119.51,932.224 L1105.49,900.731 L1073.54,894.044 L1031.54,861.441 L1007.65,863.323 L1004.32,881.479 L974.278,893.356"/>
   <path vector-effect="none" fill-rule="evenodd" d="M3079.6,977.737 L3063.89,961.069 L3048.97,961.533 L3050.97,941.926 L3018.18,963.712 L3016.71,974.145 L2973.26,967.686 L2956.44,970.649 L2920.22,960.633 L2921.77,934.426 L2933.17,919.319 L2926.08,905.752 L2927.78,876.924 L2959.15,819.592 L2991.13,810.937 L3004.54,790.676 L3022.38,799.596 L3044.47,795.606 L3059.32,810.92 L3071.47,797.149 L3085.11,803.183 L3106.25,800.434 L3112.83,823.157 L3128.59,838.505 L3153.94,838.607 L3164.11,844.432 L3196.72,823.885 L3210.66,808.874 L3218.95,832.994 L3251.13,836.063 L3256.83,860.036 L3275.21,859.715 L3296.03,879.238 L3314.34,945.944 L3283.74,961.396 L3268.8,946.132 L3232.45,970.453 L3221.15,952.747 L3188.49,973.304 L3197.02,993.492 L3191.87,1023.44 L3160.69,1032.24 L3132.51,987.289 L3117.95,996.99 L3079.6,977.737"/>
   <path vector-effect="none" fill-rule="evenodd" d="M654.717,1349.7 L622.781,1359.96 L606.362,1394.03 L613.428,1432.89 L581.017,1428.59 L554.941,1403.78 L551.88,1389 L529.764,1379.03 L498.304,1393.23 L484.405,1352.39 L464.521,1318.89 L457.713,1297.16 L432.352,1265.77 L421.445,1259.46 L446.607,1246.02 L457.855,1229.95 L466.514,1241.31 L486.418,1236.59 L497.25,1205.98 L510.009,1201.9 L510.661,1213.82 L556.631,1223.38 L572.197,1236.69 L587.463,1195.93 L622.068,1213.61 L612.977,1225.96 L611.843,1257.48 L623.641,1263.84 L618.331,1283.12 L637.672,1294.12 L634.678,1326.79 L654.717,1349.7"/>
   <path vector-effect="none" fill-rule="evenodd" d="M2541.1,1626.33 L2564.69,1617.31 L2591.91,1592.74 L2625.15,1598.78 L2643.84,1582.86 L2659.54,1586.46 L2671.54,1606.93 L2665.02,1640.71 L2679.29,1653.42 L2681.19,1694.3 L2688.8,1714.48 L2707.34,1730.09 L2727.57,1732.64 L2708.38,1770.9 L2715.53,1798.95 L2736.83,1813.39 L2764,1818.98 L2781.51,1808.21 L2797.92,1815.77 L2803.01,1834.48 L2820.54,1838.15 L2795.6,1883.98 L2801.29,1922.44 L2784.27,1954.28 L2780.04,1980.31 L2752.88,1973.41 L2738.15,1981.72 L2737.6,2005.35 L2706.58,2017.91 L2698.93,2041.11 L2663.93,2059.99 L2648.05,2057.69 L2619.25,2062.47 L2594.49,2059.61 L2581.24,2015.4 L2554,2009.73 L2545.5,1989.47 L2520.71,1973.44 L2480.8,1957.73 L2465.23,1964.61 L2456.74,1999.56 L2460.15,2015.56 L2419.49,2024.75 L2437.05,1960.16 L2429.3,1942.56 L2393.52,1945.48 L2374.64,1935.03 L2346.58,1942.38 L2340.74,1949.88 L2297.16,1949.6 L2289.44,1918.84 L2303.34,1910.57 L2315.8,1883.79 L2331.19,1879.56 L2342.39,1844.8 L2347.05,1814.86 L2343.66,1785.71 L2328.72,1770.25 L2339.65,1739.42 L2368.88,1740.04 L2365.4,1712.2 L2378.35,1690.7 L2397.33,1698.53 L2398.32,1710.43 L2420.76,1719.79 L2413.04,1742.95 L2417.85,1764.31 L2442.33,1769.85 L2465.18,1759.5 L2470.27,1749.32 L2513.64,1750.8 L2511.2,1733.55 L2491.69,1733.61 L2492.78,1716.58 L2453.77,1716.69 L2503.8,1683.11 L2509.27,1653.22 L2530.14,1645.35 L2541.1,1626.33"/>
   <path vector-effect="none" fill-rule="evenodd" d="M2281.26,2027.43 L2274.71,2058.55 L2266.2,2065.86 L2265.23,2093.41 L2227.86,2105.35 L2215.44,2091.35 L2188.09,2100.01 L2174.16,2095.11 L2167.79,2071 L2139.81,2088.79 L2133.22,2106.75 L2113.14,2113.24 L2097.82,2089.82 L2107.34,2081.28 L2102,2042.77 L2117.17,2042.51 L2130.54,2055.27 L2149.99,2044.78 L2177.3,2049.3 L2195.94,2037.42 L2207.73,2047.43 L2237.72,2025.8 L2254.21,2032.18 L2281.26,2027.43"/>
   <path vector-effect="none" fill-rule="evenodd" d="M3396.24,1105.35 L3395.88,1128.99 L3409.54,1170.44 L3404.41,1184.63 L3411.55,1199.46 L3412.69,1245.52 L3423.28,1261.83 L3422.54,1293.33 L3428.01,1340.92 L3448.63,1368.26 L3439.58,1390.14 L3437.43,1414.99 L3450.97,1443.28 L3448.15,1464.16 L3416.48,1479.62 L3364.92,1470.38 L3354.07,1492.15 L3327.19,1499.94 L3312.36,1563.55 L3298.36,1594.35 L3284.93,1597.58 L3290.45,1626.78 L3268.59,1638.75 L3245.76,1619.13 L3216.6,1618.87 L3205.52,1627.47 L3187.27,1605.45 L3199.94,1583.8 L3197.98,1554.78 L3212.5,1547.69 L3192.94,1517.71 L3178.05,1515.58 L3181.39,1486.85 L3152.99,1457.69 L3141.26,1462.3 L3128.28,1441.87 L3120.58,1421.72 L3137.64,1400.33 L3159.84,1413.38 L3165.98,1397.95 L3115.67,1383.33 L3103.44,1397.11 L3090.92,1384.58 L3085.96,1347.49 L3071.69,1334.86 L3075.51,1314.04 L3096.07,1292.85 L3089.14,1259.6 L3111.73,1249.04 L3121.16,1237.74 L3138.11,1249.2 L3145.27,1231.19 L3166.3,1216.58 L3162.57,1204.55 L3179.27,1172.61 L3201.3,1155.41 L3208.65,1133.47 L3192.95,1115.52 L3224.15,1106.71 L3255.97,1118.95 L3278.31,1095.18 L3309.22,1124.44 L3324.59,1116.05 L3374.94,1126.59 L3377.38,1113.57 L3396.24,1105.35"/>
   <path vector-effect="none" fill-rule="evenodd" d="M1015.9,1215.78 L1004.76,1242.48 L995.997,1282.55 L1002.99,1293.69 L1040.5,1299.56 L1046.81,1329.08 L1034.39,1339.86 L1038.7,1382.38 L1029.35,1388.16 L1041.91,1437.97 L1057.15,1466.93 L1049.53,1493.94 L1034.34,1495.27 L1025.07,1510.28 L1033.75,1522.88 L1033.17,1539.95 L1036.78,1560.01 L1015.51,1570.04 L948.471,1555.03 L941.737,1561.03 L904.147,1503.75 L899.204,1469.07 L880.236,1452.92 L862.962,1427.68 L865.34,1410.77 L865.356,1380.47 L880.638,1377.87 L884.654,1362.41 L859.944,1361.55 L839.773,1329.47 L845.072,1299.64 L857.243,1302.03 L869.483,1263.59 L872.9,1234.91 L883.928,1220.07 L910.267,1211.85 L914.379,1225.39 L936.523,1224.69 L952.917,1239.29 L968.927,1238.05 L989.802,1221.42 L1002.78,1204.1 L1015.9,1215.78"/>
   <path vector-effect="none" fill-rule="evenodd" d="M2380.84,1121.39 L2404.56,1121.65 L2409.3,1143.01 L2400.56,1181.89 L2350.62,1204.87 L2346.07,1220.35 L2328.01,1213.88 L2311.69,1233.82 L2288.38,1226.98 L2283.02,1241.09 L2268.31,1224.3 L2267.89,1204.54 L2248.9,1186.14 L2244.9,1167.45 L2227.92,1158.39 L2207.69,1158.31 L2203.28,1171.16 L2180.09,1162.98 L2165.25,1173.78 L2131.78,1174.07 L2145.3,1194.76 L2142.86,1216.95 L2121.56,1244.4 L2099.59,1281.01 L2086.15,1284 L2072.47,1302.77 L2037.95,1329.26 L2013.18,1330.11 L2003.08,1310.97 L2001.86,1291.15 L2024.73,1242.79 L2024.85,1216.48 L2012.15,1197.15 L1982,1212.08 L1935.17,1213.94 L1928.28,1235.81 L1915.73,1250.68 L1911.1,1205.6 L1905.06,1192 L1879.44,1169.06 L1859.59,1175.48 L1826.6,1157.24 L1811.43,1136.36 L1803.67,1098.93 L1786.76,1089.76 L1774.12,1094.07 L1759.39,1125.86 L1741.57,1140.31 L1723.48,1134.99 L1716.62,1109.45 L1695.97,1080.23 L1661.59,1069.69 L1680.39,1054.03 L1682.4,1027.85 L1657.66,1018.05 L1653.53,1003.25 L1651.06,955.666 L1677.99,936.682 L1667.08,918.726 L1679.27,897.286 L1696.75,886.782 L1714.16,865.737 L1729.28,862.944 L1751.22,897.526 L1752.92,921.35 L1788.59,937.213 L1812.82,953.516 L1820.31,935.649 L1848.64,920.656 L1862.8,907.232 L1862.5,934.851 L1882.58,936.34 L1889.76,946.085 L1888.22,978.874 L1902.67,973.361 L1917.93,1004.75 L1935.59,991.573 L1931.1,968.871 L1937.01,948.246 L1979.6,953.985 L2000.39,969.968 L2026.75,957.394 L2041.04,966.315 L2072.13,948.8 L2099.98,952.095 L2122.08,974.712 L2139.36,978.561 L2157.65,943.001 L2177.36,924.642 L2190.82,920.317 L2213.56,933.738 L2214.61,969.335 L2238.34,981.499 L2259.13,985.559 L2277.86,1019.73 L2275.38,1043.24 L2289.8,1050.8 L2301.67,1070.03 L2314.36,1064.31 L2329.47,1100.85 L2357.47,1115.88 L2380.84,1121.39"/>
   <path vector-effect="none" fill-rule="evenodd" d="M2758.3,1042.95 L2779.12,1032.38 L2793.75,1051.68 L2811.71,1059.35 L2832.61,1032.99 L2839.66,1003.17 L2863.26,1004.59 L2873.28,1013.08 L2895.28,1011.75 L2909.53,978.411 L2956.44,970.649 L2973.26,967.686 L3016.71,974.145 L3018.18,963.712 L3050.97,941.926 L3048.97,961.533 L3063.89,961.069 L3079.6,977.737 L3084.97,991.189 L3068.7,1015.25 L3062.99,1038.59 L3069.37,1065.24 L3037.24,1059.47 L3028.97,1081.34 L2994.66,1097.78 L2990.41,1110.68 L2964.23,1107.84 L2959.85,1137.83 L2962.51,1152.44 L2955.23,1171.74 L2931.24,1161.13 L2939.26,1114.27 L2920.47,1105.28 L2917.64,1123.52 L2899.17,1168.45 L2890.57,1165.31 L2873.95,1178.79 L2843.53,1187.49 L2839.14,1172.76 L2824.41,1169.25 L2807.93,1180.09 L2799.23,1105.93 L2790.8,1100.16 L2751.34,1099.06 L2746.11,1069.81 L2758.3,1042.95"/>
   <path vector-effect="none" fill-rule="evenodd" d="M1425.31,2208.11 L1408.83,2179.16 L1422.44,2131.55 L1450.99,2154.87 L1475.83,2168.67 L1501.39,2173.3 L1513.77,2197.95 L1511.86,2210.96 L1555.39,2238.03 L1585.43,2242.97 L1570.25,2277.33 L1553.33,2287.86 L1540.89,2275.06 L1496.01,2264.99 L1483.69,2250.87 L1474.97,2259.39 L1434.93,2256.24 L1419,2231.29 L1425.31,2208.11"/>
   <path vector-effect="none" fill-rule="evenodd" d="M574.048,724.1 L592.53,704.728 L585.796,692.236 L577.783,655.891 L568.586,651.077 L589.174,637.178 L580.072,612.597 L586.124,594.703 L612.361,623.515 L635.583,628.305 L632.164,598.984 L650.965,575.674 L677.739,570.233 L697.709,610.298 L718.17,606.898 L729.568,635.621 L751.616,624.446 L757.975,631.615 L780.295,627.046 L794.522,644.149 L794.065,678.377 L801.82,689.62 L788.108,705.519 L789.884,763.671 L810.109,802.392 L828.172,806.648 L830.604,818.726 L820.588,852.093 L802.613,866.295 L784.417,863.341 L756.306,843.669 L741.883,847.634 L734.474,861.46 L696.537,872.502 L665.019,870.934 L655.635,858.209 L610.027,847.409 L598.428,839.742 L575.519,840.248 L594.754,813.036 L582.413,803.979 L592.442,781.183 L592.139,756.107 L578.434,742.966 L574.048,724.1"/>
   <path vector-effect="none" fill-rule="evenodd" d="M1291.23,896.581 L1320.64,859.495 L1336.01,864.709 L1362.71,860.31 L1388,862.371 L1398.48,873.759 L1422.35,871.741 L1430.78,886.907 L1459.36,891.84 L1481.24,881.741 L1478.14,865.691 L1464.08,865.882 L1468.69,841.232 L1504.01,849.322 L1509.83,831.35 L1529.53,826.331 L1572.44,827.087 L1600.79,834.579 L1601.62,846.493 L1624.4,869.337 L1641.64,873.311 L1644.58,835.358 L1658.2,817.982 L1654.9,792.711 L1671.96,787.448 L1720.14,799.054 L1707.41,816.509 L1696.58,843.325 L1714.16,865.737 L1696.75,886.782 L1679.27,897.286 L1667.08,918.726 L1677.99,936.682 L1651.06,955.666 L1653.53,1003.25 L1657.66,1018.05 L1682.4,1027.85 L1680.39,1054.03 L1661.59,1069.69 L1646.78,1079.08 L1627.17,1070.98 L1613.34,1079.12 L1602.67,1125.68 L1588.05,1132.44 L1556.38,1120.74 L1544.49,1126.39 L1536.61,1148.15 L1511.27,1134.3 L1474.23,1145.84 L1461.58,1127.71 L1446.8,1125.21 L1424.85,1102.38 L1379.08,1123.7 L1356.56,1129.77 L1339.99,1106.03 L1355.49,1088.86 L1344.76,1080.08 L1311.19,1081.28 L1306.59,1073 L1307.97,1045.46 L1299.53,1019.75 L1298.95,984.141 L1324.04,967.768 L1326.31,950.834 L1314.39,935.368 L1293.56,942.869 L1289.51,928.047 L1291.23,896.581"/>
   <path vector-effect="none" fill-rule="evenodd" d="M949.35,756.774 L920.807,781.934 L905.084,810.854 L871.043,798.612 L828.172,806.648 L810.109,802.392 L789.884,763.671 L788.108,705.519 L801.82,689.62 L794.065,678.377 L794.522,644.149 L780.295,627.046 L757.975,631.615 L751.616,624.446 L729.568,635.621 L718.17,606.898 L697.709,610.298 L677.739,570.233 L690.108,559.506 L682.671,516.634 L736.773,537.411 L767.881,474.329 L775.968,452.652 L786.446,472.058 L794.172,454.301 L835.548,460.669 L847.309,485.451 L872.477,467.932 L882.467,483.322 L900.098,491.482 L939.653,518.71 L955.264,500.317 L965.506,513.079 L954.59,547.703 L915.296,606.176 L901.74,640.559 L911.073,663.79 L902.611,680.173 L915.432,703.711 L922.738,700.403 L941.778,723.165 L949.35,756.774"/>
   <path vector-effect="none" fill-rule="evenodd" d="M1726.9,767.974 L1720.14,799.054 L1671.96,787.448 L1654.9,792.711 L1658.2,817.982 L1644.58,835.358 L1641.64,873.311 L1624.4,869.337 L1601.62,846.493 L1600.79,834.579 L1572.44,827.087 L1529.53,826.331 L1509.83,831.35 L1504.01,849.322 L1468.69,841.232 L1464.08,865.882 L1478.14,865.691 L1481.24,881.741 L1459.36,891.84 L1430.78,886.907 L1422.35,871.741 L1398.48,873.759 L1388,862.371 L1362.71,860.31 L1336.01,864.709 L1320.64,859.495 L1291.23,896.581 L1282.18,889.246 L1263.54,902.188 L1259.28,879.443 L1256.76,814.693 L1216.8,799.497 L1223.44,793.468 L1226.62,755.534 L1240.88,742.237 L1268.09,731.334 L1250.26,703.502 L1263.41,703.282 L1328,684.923 L1342.67,676.91 L1363.33,681.24 L1386.67,663.391 L1397.29,640.547 L1410.22,642.917 L1419.85,621.307 L1413.16,585.202 L1428.12,573.244 L1440.83,524.222 L1474.33,520.34 L1481.24,510.359 L1482.58,482.807 L1507.26,468.98 L1524.54,449.287 L1554.63,476.707 L1571.07,467.473 L1570.61,429.242 L1578.33,408.779 L1599.97,377.56 L1613.88,366.801 L1652.54,373.78 L1663.18,360.123 L1679.48,352.171 L1682.89,341.9 L1695.2,340.221 L1698.35,322.027 L1717.26,280.027 L1736.33,269.643 L1743.4,279.406 L1777.83,272.823 L1761.05,321.584 L1770.5,346.01 L1801.26,353.619 L1821.47,351.198 L1842.79,368.608 L1837.65,390.606 L1826.37,401.606 L1815.83,425.828 L1798.77,432.437 L1779.04,462.541 L1752.17,460.491 L1738.43,446.271 L1719,438.194 L1688.22,452.936 L1687.31,464.718 L1670.64,488.446 L1659.46,486.261 L1647.17,498.472 L1650.23,526.366 L1643.9,540.358 L1656.01,575.539 L1677.32,582.459 L1693.94,604.812 L1713.62,610.278 L1715.49,631.488 L1706.86,641.358 L1704.18,664.852 L1679.95,684.051 L1664.5,680.221 L1653.71,695.185 L1667.55,719.958 L1676.64,749.627 L1700.58,768.588 L1726.9,767.974"/>
   <path vector-effect="none" fill-rule="evenodd" d="M647.038,932.549 L640.598,945.137 L590.761,960.303 L573.485,985.061 L538.035,977.801 L525.529,960.812 L506.44,957.702 L465.63,932.76 L431.587,929.531 L423.611,948.548 L408.519,958.976 L392.173,991.694 L381.188,995.917 L375.941,1013.87 L361.335,1009.84 L372.207,979.235 L368.742,923.524 L381.717,907.628 L371.502,894.781 L351.428,902.081 L319.916,881.896 L334.033,854.25 L344.108,868.41 L368.786,858.919 L363.354,805.651 L386.021,789.369 L392.979,808.497 L381.376,846.942 L396.565,862.902 L416.25,850.279 L424.097,869.487 L454.618,863.16 L462.461,854.674 L491.615,862.705 L506.339,883.867 L545.089,883.548 L597.116,863.348 L614.437,866.272 L614.635,892.653 L634.368,907.657 L647.038,932.549"/>
   <path vector-effect="none" fill-rule="evenodd" d="M762.084,954.896 L761.282,944.28 L735.651,955.14 L727.869,943.89 L691.798,934.016 L680.21,935.592 L676.05,923.35 L664.07,919.615 L651.131,926.335 L635.062,890.585 L660.93,877.149 L666.556,882.938 L696.537,872.502 L734.474,861.46 L741.883,847.634 L756.306,843.669 L784.417,863.341 L802.613,866.295 L809.472,868.229 L803.688,903.292 L804.077,928.365 L785.611,947.791 L783.797,958.17 L762.084,954.896"/>
   <path vector-effect="none" fill-rule="evenodd" d="M845.072,1299.64 L839.773,1329.47 L859.944,1361.55 L884.654,1362.41 L880.638,1377.87 L865.356,1380.47 L865.34,1410.77 L841.793,1416.59 L826.336,1431.03 L829.062,1460.25 L776.06,1477.93 L748.084,1443.8 L727.152,1449.83 L716.899,1435.72 L693.741,1378.29 L707.935,1358.49 L723.862,1358.62 L726.917,1344.4 L761.866,1359.4 L781.657,1355.91 L792.192,1337.09 L794.705,1318.87 L815.414,1304.9 L820.966,1292.22 L845.072,1299.64"/>
   <path vector-effect="none" fill-rule="evenodd" d="M510.009,1201.9 L497.25,1205.98 L486.418,1236.59 L466.514,1241.31 L457.855,1229.95 L446.607,1246.02 L421.445,1259.46 L405.022,1246.04 L359.922,1218.01 L338.257,1231.75 L311.835,1221.3 L308.586,1209.12 L286.179,1202.99 L280.435,1189.25 L258.518,1196.35 L228.487,1186.83 L193.614,1163.64 L213.651,1157.69 L212.452,1133.84 L246.214,1141.1 L268.244,1132.69 L284.498,1138.23 L304.77,1129.64 L342.418,1124.04 L355.797,1131.92 L371.43,1116.28 L413.946,1124.29 L424.691,1113.45 L440.569,1113.63 L454.224,1137.34 L468.479,1136.04 L468.642,1162.42 L502.979,1192.01 L510.009,1201.9"/>
   <path vector-effect="none" fill-rule="evenodd" d="M2059.17,1904.3 L2032.76,1937.95 L2037.81,1967.24 L2028.82,1981.07 L2013.1,1989.16 L2004.98,1978.06 L1994.35,2002.29 L1955.2,2013.96 L1938.8,2031.19 L1911.47,2014.75 L1852.88,2023.63 L1835.17,2034.17 L1817.43,2032.86 L1790.31,2013.75 L1794.14,1998.25 L1771.46,1967.62 L1751.87,1967.47 L1739.37,1956.01 L1747.43,1931.62 L1779.02,1937.93 L1805.22,1956.97 L1820.65,1941.01 L1860.55,1967.63 L1882.7,1969.25 L1900.9,1964 L1906.34,1938.08 L1930.06,1905.6 L1905.25,1891.96 L1881.95,1845.54 L1862.22,1859.88 L1836.66,1856.68 L1824.58,1863.69 L1804.43,1859.56 L1785.66,1872.64 L1767.58,1876.55 L1759.33,1903.56 L1749.59,1890.99 L1732.28,1896.27 L1721.46,1886.25 L1714.49,1848.88 L1704.58,1827.08 L1717.06,1814.87 L1737.1,1808.48 L1741.82,1781.21 L1764.6,1773.71 L1783.04,1752.72 L1783.62,1721.18 L1796.36,1681.34 L1756.94,1662.61 L1756.06,1686.23 L1740.57,1679.8 L1729.8,1657.93 L1732.45,1634.45 L1757.94,1590.31 L1815.62,1601.2 L1836.66,1580.39 L1868.56,1568.27 L1894.6,1575.45 L1897.08,1590.1 L1886.25,1616.94 L1904.78,1630.14 L1943.49,1634.27 L1957.06,1618.15 L1963.08,1596.21 L1974.44,1598.35 L1976.55,1618.24 L1969.47,1642.72 L1992.44,1656.21 L2012.41,1649.75 L2026.06,1632.3 L2049.45,1627.39 L2075.86,1642.41 L2091.97,1652.75 L2081.95,1669.15 L2097.89,1682.11 L2088.53,1714.33 L2103.05,1735.08 L2068.27,1787.88 L2068.6,1795.8 L2104.38,1804.89 L2107.42,1824.83 L2096.36,1830.63 L2065.04,1833.69 L2046.05,1850.76 L2038.02,1901.49 L2059.17,1904.3"/>
   <path vector-effect="none" fill-rule="evenodd" d="M2397.05,1407.88 L2421.32,1414.74 L2432.77,1428.65 L2457.81,1423.71 L2472.9,1449.68 L2490.27,1467.9 L2496.66,1491.98 L2510.36,1512.59 L2502.93,1531.84 L2479.27,1542.14 L2474.39,1562.87 L2483.76,1609.5 L2513.52,1600.9 L2524.47,1581.88 L2530.69,1623.04 L2541.1,1626.33 L2530.14,1645.35 L2509.27,1653.22 L2503.8,1683.11 L2453.77,1716.69 L2492.78,1716.58 L2491.69,1733.61 L2511.2,1733.55 L2513.64,1750.8 L2470.27,1749.32 L2465.18,1759.5 L2442.33,1769.85 L2417.85,1764.31 L2413.04,1742.95 L2420.76,1719.79 L2398.32,1710.43 L2397.33,1698.53 L2378.35,1690.7 L2365.4,1712.2 L2368.88,1740.04 L2339.65,1739.42 L2334.08,1729.84 L2317.21,1730.03 L2307.59,1741.22 L2284.36,1743.6 L2257.26,1724.67 L2241.01,1728.83 L2215.76,1721.84 L2212.15,1709.76 L2179.49,1707.51 L2169.28,1688.4 L2140.31,1696.91 L2124.27,1685.27 L2097.89,1682.11 L2081.95,1669.15 L2091.97,1652.75 L2075.86,1642.41 L2086.21,1633.93 L2081.6,1611.25 L2069.08,1612.99 L2065.13,1581.14 L2074.96,1567.37 L2092.2,1548.85 L2102.12,1558.76 L2122.91,1527.33 L2145.71,1530.24 L2149.93,1571.31 L2173.11,1568.97 L2179.68,1589.15 L2196.86,1596.92 L2213.29,1563.85 L2241.65,1576.31 L2253.12,1563.94 L2264.48,1566.03 L2282.11,1540.92 L2287.93,1520.27 L2299.99,1511.88 L2303.78,1495.03 L2317.51,1474.91 L2368.09,1471.72 L2382.27,1484.5 L2399.75,1460.67 L2392.51,1436.52 L2397.05,1407.88"/>
   <path vector-effect="none" fill-rule="evenodd" d="M2649.17,1033.54 L2647.67,1029.5 L2653.06,999.595 L2643.93,963.51 L2677.45,960.352 L2675.1,941.793 L2663.37,933.167 L2665.31,916.191 L2680.42,898.724 L2677.32,864.334 L2664.19,850.358 L2668.12,829.56 L2687,821.535 L2688.01,791.347 L2705.92,784.572 L2722.15,790.841 L2727.72,771.458 L2741.49,774.94 L2754.22,795.453 L2781.55,791.868 L2795.81,773.011 L2807.36,798.703 L2855.51,783.2 L2864.06,786.343 L2875.81,823.869 L2895.14,822.391 L2902.36,833.34 L2925.31,814.973 L2930.16,821.834 L2959.15,819.592 L2927.78,876.924 L2926.08,905.752 L2933.17,919.319 L2921.77,934.426 L2920.22,960.633 L2956.44,970.649 L2909.53,978.411 L2895.28,1011.75 L2873.28,1013.08 L2863.26,1004.59 L2839.66,1003.17 L2832.61,1032.99 L2811.71,1059.35 L2793.75,1051.68 L2779.12,1032.38 L2758.3,1042.95 L2722.76,1049.96 L2711.45,1062.42 L2691.26,1062.48 L2684.61,1042.34 L2692.75,1024.43 L2679.33,1014.39 L2649.17,1033.54"/>
   <path vector-effect="none" fill-rule="evenodd" d="M2404.56,1121.65 L2380.84,1121.39 L2371.82,1072.12 L2370.16,1044.38 L2361.51,1042.49 L2360.64,1016.12 L2371.3,1001.05 L2365.28,986.175 L2381.09,959.607 L2433.39,938.087 L2442.55,932.114 L2441.75,904.436 L2427.78,890.358 L2408.41,904.86 L2400.39,920.112 L2386.34,907.336 L2368.89,906.168 L2344.56,876.905 L2381.03,855.673 L2368.92,840.39 L2368.58,819.317 L2352.72,820.881 L2337.83,808.036 L2346.67,767.846 L2332.38,772.143 L2323.51,761.016 L2340.26,733.203 L2325.04,725.593 L2331.96,687.905 L2321.57,660.882 L2329.16,639.029 L2317.62,629.033 L2324.17,609.74 L2307.4,561.225 L2279.47,548.784 L2305.81,533.481 L2326.04,530.912 L2361.23,500.398 L2376.65,517.229 L2390.45,519.472 L2368.36,562.727 L2349.84,578.584 L2364.59,592.738 L2389.89,566.806 L2409.78,556.294 L2429.92,581.32 L2442.16,607.133 L2450.6,637.953 L2468.06,624.632 L2473.11,640.753 L2463.38,642.743 L2466.09,681.077 L2478.17,670.03 L2483.93,688.827 L2501.69,711.039 L2533.1,711.767 L2559.41,683.21 L2586.37,684.943 L2592.49,698.49 L2612.55,685.3 L2628.59,666.588 L2639.14,679.096 L2655.42,711.695 L2673.99,722.071 L2678.46,706.567 L2691.54,692.917 L2699.67,702.632 L2705.27,752.964 L2696.29,770.819 L2705.92,784.572 L2688.01,791.347 L2687,821.535 L2668.12,829.56 L2664.19,850.358 L2677.32,864.334 L2680.42,898.724 L2665.31,916.191 L2663.37,933.167 L2675.1,941.793 L2677.45,960.352 L2643.93,963.51 L2653.06,999.595 L2647.67,1029.5 L2630.93,1016.61 L2613.04,1022.06 L2597.64,1043.44 L2575.58,1031.51 L2565.05,1017.68 L2552.48,1022.14 L2538.81,1043.62 L2517.57,1046.19 L2517.09,1067.21 L2469.07,1062.77 L2446.43,1073.12 L2438.77,1109.44 L2426.18,1127.03 L2404.56,1121.65"/>
   <path vector-effect="none" fill-rule="evenodd" d="M654.717,1349.7 L669.261,1374.75 L664.794,1384.88 L667.759,1400.96 L694.244,1402.05 L715.022,1436.87 L668.323,1462.94 L658.822,1421.23 L641.847,1442.08 L655.221,1480.2 L670.464,1488.17 L664.162,1508.68 L645.889,1524.14 L624.639,1523.52 L614.117,1531.78 L546.32,1525.53 L542.007,1514.59 L502.272,1512.21 L483.298,1515.71 L474.036,1481.9 L505.537,1467.71 L507.514,1456.03 L498.304,1393.23 L529.764,1379.03 L551.88,1389 L554.941,1403.78 L581.017,1428.59 L613.428,1432.89 L606.362,1394.03 L622.781,1359.96 L654.717,1349.7"/>
   <path vector-effect="none" fill-rule="evenodd" d="M1976.87,1441.97 L1969.6,1469.07 L1935.79,1471.88 L1929.9,1455.67 L1930.98,1404.43 L1890.66,1412.01 L1867.98,1384.02 L1871.38,1361.9 L1889.13,1348.74 L1890.38,1331.72 L1880.12,1315.18 L1868.62,1327.49 L1845.31,1332.34 L1816.44,1328.88 L1787.35,1351.71 L1781.88,1365.77 L1748.8,1359.33 L1695.69,1314.5 L1673.99,1332.58 L1592.81,1331.58 L1573.73,1293.23 L1560.46,1293.51 L1584.73,1242.76 L1569.86,1207.37 L1562.29,1225.2 L1539.8,1219.49 L1531.45,1191.19 L1542.22,1155.17 L1536.61,1148.15 L1544.49,1126.39 L1556.38,1120.74 L1588.05,1132.44 L1602.67,1125.68 L1613.34,1079.12 L1627.17,1070.98 L1646.78,1079.08 L1661.59,1069.69 L1695.97,1080.23 L1716.62,1109.45 L1723.48,1134.99 L1741.57,1140.31 L1759.39,1125.86 L1774.12,1094.07 L1786.76,1089.76 L1803.67,1098.93 L1811.43,1136.36 L1826.6,1157.24 L1859.59,1175.48 L1879.44,1169.06 L1905.06,1192 L1911.1,1205.6 L1915.73,1250.68 L1928.28,1235.81 L1935.17,1213.94 L1982,1212.08 L2012.15,1197.15 L2024.85,1216.48 L2024.73,1242.79 L2001.86,1291.15 L2003.08,1310.97 L2013.18,1330.11 L2014.56,1372.32 L2024.56,1417.76 L1998.78,1419.86 L1976.87,1441.97"/>
   <path vector-effect="none" fill-rule="evenodd" d="M586.124,594.703 L577.128,550.352 L567.925,527.075 L527.751,507.476 L521.671,488.441 L536.651,468.755 L509.399,442.445 L501.848,420.629 L536.123,390.901 L561.73,388.037 L602.157,366.769 L623.179,366.092 L651.161,384.514 L633.525,414.524 L649.381,422.587 L665.482,428.032 L663.57,458.181 L682.547,470.479 L686.863,509.11 L682.671,516.634 L690.108,559.506 L677.739,570.233 L650.965,575.674 L632.164,598.984 L635.583,628.305 L612.361,623.515 L586.124,594.703"/>
  </g>
  <g transform="matrix(11.8081,0,0,11.8081,0,0)" font-size="34.375" stroke-linejoin="bevel" font-weight="400" stroke="#000000" font-style="normal" stroke-linecap="square" fill="none" font-family="MS Shell Dlg 2" stroke-width="1" stroke-opacity="1"/>
  <g transform="matrix(11.8081,0,0,11.8081,0,0)" font-size="34.375" stroke-linejoin="bevel" font-weight="400" stroke="#000000" font-style="normal" stroke-linecap="square" fill="none" font-family="MS Shell Dlg 2" stroke-width="1" stroke-opacity="1"/>
  <g transform="matrix(11.8081,0,0,11.8081,0,0)" font-size="34.375" stroke-linejoin="bevel" font-weight="400" stroke="#000000" font-style="normal" stroke-linecap="square" fill="none" font-family="MS Shell Dlg 2" stroke-width="1" stroke-opacity="1"/>
  <g transform="matrix(1,0,0,1,0,0)" font-size="34.375" stroke-linejoin="bevel" font-weight="400" stroke="#000000" font-style="normal" stroke-linecap="square" fill="none" font-family="MS Shell Dlg 2" stroke-width="1" stroke-opacity="1"/>
  <g transform="matrix(11.8081,0,0,11.8081,0,0)" font-size="34.375" stroke-linejoin="bevel" font-weight="400" stroke="#000000" font-style="normal" stroke-linecap="square" fill="none" font-family="MS Shell Dlg 2" stroke-width="1" stroke-opacity="1"/>
  <g transform="matrix(11.8081,0,0,11.8081,0,0)" font-size="34.375" stroke-linejoin="bevel" font-weight="400" stroke="#000000" font-style="normal" stroke-linecap="square" fill="none" font-family="MS Shell Dlg 2" stroke-width="1" stroke-opacity="1"/>
  <g transform="matrix(11.8081,0,0,11.8081,0,0)" font-size="34.375" stroke-linejoin="bevel" font-weight="400" stroke="#000000" font-style="normal" stroke-linecap="square" fill="none" font-family="MS Shell Dlg 2" stroke-width="1" stroke-opacity="1"/>
  <g transform="matrix(11.8081,0,0,11.8081,0,0)" font-size="34.375" stroke-linejoin="bevel" font-weight="400" stroke="#000000" font-style="normal" stroke-linecap="square" fill="none" font-family="MS Shell Dlg 2" stroke-width="1" stroke-opacity="1"/>
  <g transform="matrix(1,0,0,1,0,0)" font-size="34.375" stroke-linejoin="bevel" font-weight="400" stroke="#000000" font-style="normal" stroke-linecap="square" fill="none" font-family="MS Shell Dlg 2" stroke-width="1" stroke-opacity="1"/>
 </g>
 <metadata>
  <rdf:RDF xmlns:dc="http://purl.org/dc/elements/1.1/" xmlns:rdfs="http://www.w3.org/2000/01/rdf-schema#" xmlns:rdf="http://www.w3.org/1999/02/22-rdf-syntax-ns#">
   <rdf:Description dc:identifier="" dc:title="" dc:date="2020-04-15T10:35:13" dc:format="image/svg+xml" dc:description="">
    <dc:creator>
     <rdf:Bag>
      <rdf:li>STEPHANE MEVEL-VIANNAY</rdf:li>
     </rdf:Bag>
    </dc:creator>
    <dc:publisher>
     <rdf:Bag>
      <rdf:li>QGIS 3.12.1-Bucureti</rdf:li>
     </rdf:Bag>
    </dc:publisher>
    <dc:subject>
     <rdf:Bag/>
    </dc:subject>
   </rdf:Description>
   <cc:Work rdf:about="">
    <dc:format>image/svg+xml</dc:format>
    <dc:title></dc:title>
    <dc:date>2020-04-15T10:35:13</dc:date>
    <dc:identifier></dc:identifier>
    <dc:description></dc:description>
    <dc:creator>
     <cc:Agent>
      <dc:title>STEPHANE MEVEL-VIANNAY</dc:title>
     </cc:Agent>
    </dc:creator>
    <dc:publisher>
     <cc:Agent>
      <dc:title>QGIS 3.12.1-Bucureti</dc:title>
     </cc:Agent>
    </dc:publisher>
   </cc:Work>
  </rdf:RDF>
 </metadata>
</svg>
